<svg xmlns="http://www.w3.org/2000/svg" style="isolation:isolate" viewBox="0 0 800 800" width="800" height="800"><title>interiordelight.ro</title><path d="M0 0h800v800H0V0zm50 50v700h700V50H50zM600 0h50v50h-50V0z" fill-rule="evenodd" fill="#FFF"/><path fill="#FFF" d="M550 200h50v200h-50zm-5-75c0-16.557 13.443-30 30-30 16.557 0 30 13.443 30 30 0 16.557-13.443 30-30 30-16.557 0-30-13.443-30-30z"/><path d="M650 675.01C629.108 690.7 603.14 700 575 700c-69.036 0-125-55.964-125-125s55.964-125 125-125c28.14 0 54.108 9.299 75 24.99V0h50v700h-50v-24.99zM575 650c41.421 0 75-33.579 75-75s-33.579-75-75-75-75 33.579-75 75 33.579 75 75 75z" fill-rule="evenodd" fill="#FFF"/></svg>